# xmcd
#
# Track frame offsets:
#	150
#	7884
#	18259
#	29534
#	40699
#	52477
#	64101
#	78002
#	93748
#	110790
#	125126
#	135960
#	149071
#	164948
#	178937
#	189363
#	199800
#	214049
#	226275
#	239607
#	250247
#	262510
#	275640
#	288196
#	307029
#	318580
#
# Disc length: 4461 seconds
#
# Revision: 1
# Processed by: cddbd v1.5.2PL0 Copyright (c) Steve Scherf et al.
# Submitted via: EasyCDDAExtractor 11.9.9.666
#
DISCID=89116b1a
DTITLE=Dolly Parton - Dolly Box Set Sampler
DYEAR=2009
DGENRE=RCA - Legacy
TTITLE0=Puppy Love
TTITLE1=It's Sure Gonna Hurt - Dolly Parton with the Merry Melody Singers - It
TTITLE1='s Sure Gonna Hurt
TTITLE2=Don't Drop Out
TTITLE3=Dumb Blonde
TTITLE4=Last Thing On My Mind - Porter Wagoner and Dolly Parton - Last Thing O
TTITLE4=n My Mind
TTITLE5=The Bridge
TTITLE6=Just Because I'm A Woman
TTITLE7=My Blue Ridge Mountain Boy
TTITLE8=Down From Dover
TTITLE9=Everything Is Beautiful (In Its Own Way)
TTITLE10=Just Someone That I Used Know
TTITLE11=The Gold Streets Of Glory
TTITLE12=Daddy's Moonshine
TTITLE13=Coat Of Many Colors
TTITLE14=My Blue Tears
TTITLE15=God's Coloring Book
TTITLE16=My Tennessee Mountain Home
TTITLE17=Jolene
TTITLE18=I Will Always Love You
TTITLE19=Love Is Like A Butterfly
TTITLE20=The Bargain Store
TTITLE21=Here You Come Again
TTITLE22=9 To 5
TTITLE23=Islands In The Stream - Kenny Rigers with Dolly Parton - Islands In T
TTITLE23=he Stream
TTITLE24=Why'd You Come In Here Lookin' Like That
TTITLE25=Romeo with Billy Ray Cyrus, Tanya Tucker, Mary Chapin Carpender, Kath
TTITLE25=y Mattea and Pam Tillis
EXTD=
EXTT0=
EXTT1=
EXTT2=
EXTT3=
EXTT4=
EXTT5=
EXTT6=
EXTT7=
EXTT8=
EXTT9=
EXTT10=
EXTT11=
EXTT12=
EXTT13=
EXTT14=
EXTT15=
EXTT16=
EXTT17=
EXTT18=
EXTT19=
EXTT20=
EXTT21=
EXTT22=
EXTT23=
EXTT24=
EXTT25=
PLAYORDER=
